<svg version="1.2" xmlns="http://www.w3.org/2000/svg" viewBox="0 0 96 96" width="96" height="96"><defs><linearGradient id="P" gradientUnits="userSpaceOnUse"/><radialGradient id="g1" cx="45" cy="68" r="10" href="#P"><stop stop-color="#2e3436"/><stop offset="1" stop-color="#2e3436" stop-opacity="0"/></radialGradient><linearGradient id="g2" x1="23.6" y1="27.4" x2="23.6" y2="67.1" href="#P"><stop stop-color="#fff" stop-opacity=".8"/><stop offset="1" stop-color="#fff" stop-opacity="0"/></linearGradient><linearGradient id="g3" x1="42" y1="10" x2="58.3" y2="52.6" href="#P"><stop stop-color="#fff"/><stop offset="1" stop-color="#fff" stop-opacity="0"/></linearGradient></defs><style>.a{opacity:.8;fill:url(#g1)}.b{fill:#8bb300;stroke:#445800;stroke-linecap:round;stroke-linejoin:round;stroke-width:1.1}.c{opacity:.8;fill:none;stroke:url(#g2);stroke-linecap:round;stroke-linejoin:round;stroke-width:1.1}.d{opacity:.8;fill:url(#g3)}</style><path class="a" d="m55.1 68c0 0.9-4.5 1.7-10.1 1.7-5.5 0-10-0.8-10-1.7 0-0.9 4.5-1.6 10-1.6 5.6 0 10.1 0.7 10.1 1.6z"/><path class="b" d="m61 26.9c-0.6-0.1-1.3 0.1-1.7 0.7l-16 25-8.6-7.9c-0.8-0.5-1.8-0.3-2.3 0.5l-4.5 5c-0.5 0.7-0.2 1.8 0.5 2.3 0 0 15.7 14.9 15.7 14.9q0.3 0.2 0.6 0.2c0.7 0.2 1.4-0.1 1.8-0.7l21.6-33.7c0.5-0.7 0.2-1.8-0.5-2.3l-5.9-3.8q-0.3-0.2-0.7-0.2z"/><path fill-rule="evenodd" class="c" d="m60.6 28c-0.2 0.1-0.3 0.3-0.7 0.7l-8.1 12.8-7.2 11.1q-0.1 0.2-0.2 0.3 0 0.1-0.1 0.3c-0.2 0.2-0.4 0.4-0.8 0.4-0.3 0.1-0.4 0.1-0.6 0-0.2-0.1-0.4-0.3-0.7-0.5l-7.6-7q-0.3-0.2-0.5-0.4-0.2-0.1-0.3-0.1-0.2-0.1-0.4 0.1-0.1 0.1-0.4 0.3l-3.5 3.9q-0.7 0.6-0.7 1.2c0.1 0.4 0.3 0.7 0.9 1.1 0 0 3.5 3.4 7.1 6.8 1.8 1.7 3.6 3.4 4.9 4.6 0.7 0.7 1.2 1.2 1.6 1.6q0.3 0.3 0.5 0.4 0.1 0.1 0.1 0.1 0 0.1 0 0.1 0.1 0 0.1 0c0.1 0 0.1 0.1 0.2 0.2 0.1 0.1 0.2 0.2 0.6 0.5 0.1 0.1 0.3 0.1 0.5 0.1q0.2-0.2 0.3-0.4c0.3-0.3 0.5-0.7 0.7-1l20.7-32.2q0.2-0.3 0.3-0.5 0.1-0.2 0.1-0.3-0.1-0.2-0.2-0.3c-0.1-0.1-0.3-0.2-0.4-0.3q-0.1 0-0.1 0l-5.3-3.3c-0.1-0.1-0.3-0.2-0.4-0.2q-0.2-0.1-0.4-0.1z"/><path class="d" d="m60.6 27.4c-0.3 0-0.6 0.2-0.8 0.5l-10.9 16.9q6.8-2.2 13.6-3.8l5.2-8c0.3-0.6 0.1-1.3-0.4-1.7l-5.9-3.8c-0.1-0.1-0.3-0.1-0.5-0.1q-0.1 0-0.3 0zm-27.1 17.6q-0.4 0.1-0.7 0.5 0 0 0 0l-4.4 4.9q0 0 0 0.1c-0.4 0.5-0.2 1.2 0.3 1.6q0.1 0 0.1 0c0 0 0.5 0.5 0.5 0.5q4.5-2 9.1-3.9l-4-3.6q0 0 0 0-0.5-0.2-0.9-0.1z"/></svg>